<?xml version="1.0" encoding="UTF-8"?>
<svg width="61px" height="76px" viewBox="0 0 61 76" version="1.1" xmlns="http://www.w3.org/2000/svg" xmlns:xlink="http://www.w3.org/1999/xlink">
    <!-- Generator: Sketch 51.3 (57544) - http://www.bohemiancoding.com/sketch -->
    <title>driver</title>
    <desc>Created with Sketch.</desc>
    <defs>
        <linearGradient x1="81.4515344%" y1="0%" x2="-8.62428845%" y2="112.574642%" id="linearGradient-1">
            <stop stop-color="#23BBFC" offset="0%"></stop>
            <stop stop-color="#3D09D1" offset="89.0998%"></stop>
        </linearGradient>
        <linearGradient x1="81.4511111%" y1="0%" x2="34.6666667%" y2="134.292667%" id="linearGradient-2">
            <stop stop-color="#23BBFC" offset="0%"></stop>
            <stop stop-color="#3D09D1" offset="89.0998%"></stop>
        </linearGradient>
    </defs>
    <g id="Page-1" stroke="none" stroke-width="1" fill="none" fill-rule="evenodd">
        <g id="Telecom_Car_logo">
            <circle id="Oval" fill="#FFFFFF" cx="31" cy="29" r="25"></circle>
            <path d="M55.6672,43.7475 C60.1457,35.7063 61.9292,25.8462 57.934,17.5543 C52.9298,7.1682 42.2955,0 29.9853,0 C18.1754,0 7.90794,6.5973 2.67437,16.3041 C-2.13082,25.2163 0.0538824,36.1615 5.15423,44.9082 C9.94967,53.132 16.2336,60.2535 23.4608,68.444 L23.6426,68.6501 L23.6459,68.6539 L23.6516,68.6603 C25.688,70.9682 27.8003,73.3623 29.9774,75.8907 C29.9825,75.8966 29.9853,75.9042 29.9853,75.912 L29.9853,75.9539 C29.9853,75.9697 30.005,75.9771 30.0154,75.965 C30.0222,75.9571 30.0345,75.9571 30.0414,75.965 C30.0517,75.9771 30.0715,75.9697 30.0715,75.9539 L30.0715,75.912 C30.0715,75.9042 30.0743,75.8966 30.0794,75.8907 C32.2596,73.3585 34.3749,70.9612 36.4141,68.6502 L37.226,67.7304 L37.3225,67.621 C44.5618,59.4208 50.999,52.1292 55.6672,43.7475 Z M29.9853,48 C41.031,48 49.9853,39.0457 49.9853,28 C49.9853,16.9543 41.031,8 29.9853,8 C18.9396,8 9.98528,16.9543 9.98528,28 C9.98528,39.0457 18.9396,48 29.9853,48 Z" id="Shape" fill="url(#linearGradient-1)"></path>
            <path d="M24.3508,22.6196 C24.7878,21.6347 25.7628,21 26.8388,21 L33.1319,21 C34.2079,21 35.1829,21.6347 35.62,22.6196 L37.2543,26.303 L37.3215,26.303 C38.2404,26.303 38.9854,27.0492 38.9854,27.9697 L38.9854,32.3636 C38.9854,32.782 38.6467,33.1212 38.229,33.1212 L37.7753,33.1212 L37.7753,34.7879 C37.7753,35.4573 37.2335,36 36.5652,36 L36.1114,36 C35.4431,36 34.9013,35.4573 34.9013,34.7879 L34.9013,33.1212 L25.0694,33.1212 L25.0694,34.7879 C25.0694,35.4573 24.5276,36 23.8593,36 L23.4055,36 C22.7372,36 22.1954,35.4573 22.1954,34.7879 L22.1954,33.1212 L21.7417,33.1212 C21.324,33.1212 20.9854,32.782 20.9854,32.3636 L20.9854,27.9697 C20.9854,27.0492 21.7303,26.303 22.6492,26.303 L22.7164,26.303 L24.3508,22.6196 Z M23.7671,26.303 L36.2036,26.303 L34.989,23.3397 C34.7094,22.6576 34.046,22.2121 33.3098,22.2121 L26.6609,22.2121 C25.9247,22.2121 25.2613,22.6575 24.9817,23.3397 L23.7671,26.303 Z M37.4727,28.8788 C37.4727,29.6319 36.8633,30.2424 36.1114,30.2424 C35.3595,30.2424 34.7501,29.6319 34.7501,28.8788 C34.7501,28.1257 35.3595,27.5152 36.1114,27.5152 C36.8633,27.5152 37.4727,28.1257 37.4727,28.8788 Z M23.8593,30.2424 C24.6112,30.2424 25.2206,29.6319 25.2206,28.8788 C25.2206,28.1257 24.6112,27.5152 23.8593,27.5152 C23.1074,27.5152 22.498,28.1257 22.498,28.8788 C22.498,29.6319 23.1074,30.2424 23.8593,30.2424 Z" id="Shape" fill="url(#linearGradient-2)"></path>
        </g>
    </g>
</svg>