<?xml version="1.0" encoding="UTF-8"?>
<svg width="38px" height="38px" viewBox="0 0 38 38" version="1.1" xmlns="http://www.w3.org/2000/svg" xmlns:xlink="http://www.w3.org/1999/xlink">
    <!-- Generator: Sketch 51.3 (57544) - http://www.bohemiancoding.com/sketch -->
    <title>pin_driver</title>
    <desc>Created with Sketch.</desc>
    <defs>
        <linearGradient x1="17.5395553%" y1="78.8065362%" x2="84.8565528%" y2="22.206475%" id="linearGradient-1">
            <stop stop-color="#3635DC" offset="0%"></stop>
            <stop stop-color="#28A1F7" offset="100%"></stop>
        </linearGradient>
        <linearGradient x1="22.1682788%" y1="74.9147103%" x2="87.9932654%" y2="19.5691304%" id="linearGradient-2">
            <stop stop-color="#3638DD" offset="0%"></stop>
            <stop stop-color="#28A1F7" offset="100%"></stop>
        </linearGradient>
    </defs>
    <g id="Page-1" stroke="none" stroke-width="1" fill="none" fill-rule="evenodd">
        <g id="pin_driver">
            <circle id="Oval" fill="url(#linearGradient-1)" fill-rule="nonzero" cx="19" cy="19" r="19"></circle>
            <circle id="Oval" stroke="#FFFFFF" fill="url(#linearGradient-2)" fill-rule="nonzero" cx="19" cy="19" r="14"></circle>
            <path d="M14.6175333,14.2596889 C14.9574222,13.4936556 15.7157556,13 16.5526444,13 L21.4472778,13 C22.2841667,13 23.0425,13.4936556 23.3824667,14.2596889 L24.6535889,17.1245556 L24.7058556,17.1245556 C25.4205556,17.1245556 26,17.7049333 26,18.4208778 L26,21.8383556 C26,22.1637778 25.7365667,22.4276 25.4116889,22.4276 L25.0588111,22.4276 L25.0588111,23.7239222 C25.0588111,24.2445667 24.6374111,24.6666667 24.1176222,24.6666667 L23.7646667,24.6666667 C23.2448778,24.6666667 22.8234778,24.2445667 22.8234778,23.7239222 L22.8234778,22.4276 L15.1764444,22.4276 L15.1764444,23.7239222 C15.1764444,24.2445667 14.7550444,24.6666667 14.2352556,24.6666667 L13.8823,24.6666667 C13.3625111,24.6666667 12.9411111,24.2445667 12.9411111,23.7239222 L12.9411111,22.4276 L12.5882333,22.4276 C12.2633556,22.4276 12,22.1637778 12,21.8383556 L12,18.4208778 C12,17.7049333 12.5793667,17.1245556 13.2940667,17.1245556 L13.3463333,17.1245556 L14.6175333,14.2596889 Z M14.1635444,17.1245556 L23.8363778,17.1245556 L22.8916889,14.8197667 C22.6742222,14.2892444 22.1582444,13.9427444 21.5856444,13.9427444 L16.4142778,13.9427444 C15.8416778,13.9427444 15.3257,14.2891667 15.1082333,14.8197667 L14.1635444,17.1245556 Z M24.8234556,19.1279556 C24.8234556,19.7137 24.3494778,20.1885333 23.7646667,20.1885333 C23.1798556,20.1885333 22.7058778,19.7137 22.7058778,19.1279556 C22.7058778,18.5422111 23.1798556,18.0673778 23.7646667,18.0673778 C24.3494778,18.0673778 24.8234556,18.5422111 24.8234556,19.1279556 Z M14.2352556,20.1885333 C14.8200667,20.1885333 15.2940444,19.7137 15.2940444,19.1279556 C15.2940444,18.5422111 14.8200667,18.0673778 14.2352556,18.0673778 C13.6504444,18.0673778 13.1764667,18.5422111 13.1764667,19.1279556 C13.1764667,19.7137 13.6504444,20.1885333 14.2352556,20.1885333 Z" id="Shape" fill="#FFFFFF"></path>
        </g>
    </g>
</svg>