<?xml version="1.0" encoding="UTF-8"?>
<svg width="61px" height="76px" viewBox="0 0 61 76" version="1.1" xmlns="http://www.w3.org/2000/svg" xmlns:xlink="http://www.w3.org/1999/xlink">
    <!-- Generator: Sketch 51.3 (57544) - http://www.bohemiancoding.com/sketch -->
    <title>pin_b</title>
    <desc>Created with Sketch.</desc>
    <defs>
        <linearGradient x1="13.9022848%" y1="92.5290529%" x2="82.5875838%" y2="4.58991299%" id="linearGradient-1">
            <stop stop-color="#3922D7" offset="0%"></stop>
            <stop stop-color="#26A9F8" offset="100%"></stop>
        </linearGradient>
        <linearGradient x1="0%" y1="100%" x2="87.8257834%" y2="10.4236909%" id="linearGradient-2">
            <stop stop-color="#3A1DD6" offset="0%"></stop>
            <stop stop-color="#26A9F8" offset="100%"></stop>
        </linearGradient>
    </defs>
    <g id="Page-1" stroke="none" stroke-width="1" fill="none" fill-rule="evenodd">
        <g id="pin_b">
            <path d="M56.4493565,43.7641901 C60.9907822,35.7199223 62.7993415,25.8560605 58.7480064,17.5609971 C53.6734943,7.17093473 42.8897757,0 30.4066097,0 C18.4307733,0 8.01904905,6.59981693 2.71194412,16.3103202 C-2.16076179,25.2259202 0.0546370376,36.1752959 5.2266477,44.9253329 C10.0894666,53.1522703 16.4616898,60.2764872 23.7904364,68.470112 L23.9747908,68.6762906 L23.9781372,68.6800921 L23.9839173,68.6864945 C26.04893,70.995275 28.1909091,73.3902884 30.3985987,75.919653 C30.4037704,75.9255552 30.4066097,75.9331581 30.4066097,75.9409611 L30.4066097,75.9828771 C30.4066097,75.9986831 30.4265865,76.0060859 30.4371327,75.9939813 C30.4440282,75.9860783 30.456501,75.9860783 30.463498,75.9939813 C30.4739427,76.0060859 30.4940209,75.9986831 30.4940209,75.9828771 L30.4940209,75.9409611 C30.4940209,75.9331581 30.4968602,75.9255552 30.5020319,75.919653 C32.7128651,73.3864869 34.8578864,70.9882723 36.9257384,68.6763906 L37.7490461,67.7562397 L37.846902,67.646798 C45.1879187,59.4434696 51.7155653,52.1490877 56.4493565,43.7641901 Z" id="Shape" fill="url(#linearGradient-1)" fill-rule="nonzero"></path>
            <circle id="Oval" fill="#FFFFFF" fill-rule="nonzero" cx="30" cy="29" r="19"></circle>
            <path d="M30.3742277,27.2215357 C31.4863251,27.2215357 32.3512767,27.0670801 32.9691086,26.7581642 C33.9399872,26.2727248 34.4254192,25.3989472 34.4254192,24.1368049 C34.4254192,22.8658365 33.9090961,22.0097109 32.8764342,21.5684025 C32.2939071,21.3212697 31.4289554,21.1977052 30.2815534,21.1977052 L25.5816417,21.1977052 L25.5816417,27.2215357 L30.3742277,27.2215357 Z M31.2612533,36.1977052 C32.8764423,36.1977052 34.0282402,35.7299252 34.7166814,34.7943513 C35.1491637,34.2029979 35.3654016,33.4880889 35.3654016,32.6496028 C35.3654016,31.2374157 34.7343399,30.2753777 33.4721977,29.7634598 C32.8014088,29.4898486 31.9143921,29.353045 30.8111209,29.353045 L25.5816417,29.353045 L25.5816417,36.1977052 L31.2612533,36.1977052 Z M23,19 L31.3539276,19 C33.6310793,19 35.2506571,19.6796049 36.2127096,21.038835 C36.7775845,21.8420164 37.0600177,22.7687503 37.0600177,23.8190644 C37.0600177,25.045902 36.7113892,26.0520702 36.0141218,26.8375993 C35.6522489,27.2524293 35.1315127,27.6319489 34.4518976,27.9761695 C35.4492548,28.3556947 36.1950549,28.7837575 36.6893204,29.2603707 C37.5631112,30.107683 38,31.2771329 38,32.7687555 C38,34.0220716 37.6072414,35.1562173 36.8217123,36.1712268 C35.6478317,37.689328 33.7811249,38.4483672 31.2215357,38.4483672 L23,38.4483672 L23,19 Z" id="B" fill="url(#linearGradient-2)"></path>
        </g>
    </g>
</svg>