<?xml version="1.0" encoding="UTF-8"?>
<svg width="61px" height="76px" viewBox="0 0 61 76" version="1.1" xmlns="http://www.w3.org/2000/svg" xmlns:xlink="http://www.w3.org/1999/xlink">
    <!-- Generator: Sketch 51.3 (57544) - http://www.bohemiancoding.com/sketch -->
    <title>pin_a</title>
    <desc>Created with Sketch.</desc>
    <defs>
        <linearGradient x1="81.4515344%" y1="0%" x2="1.19415639%" y2="100.303781%" id="linearGradient-1">
            <stop stop-color="#FCC701" offset="0%"></stop>
            <stop stop-color="#D95A07" offset="100%"></stop>
        </linearGradient>
        <linearGradient x1="8.41902385%" y1="100%" x2="69.2485872%" y2="21.6095701%" id="linearGradient-2">
            <stop stop-color="#E17106" offset="0%"></stop>
            <stop stop-color="#F7B802" offset="100%"></stop>
        </linearGradient>
    </defs>
    <g id="Page-1" stroke="none" stroke-width="1" fill="none" fill-rule="evenodd">
        <g id="pin_a">
            <path d="M56.4493565,43.7641901 C60.9907822,35.7199223 62.7993415,25.8560605 58.7480064,17.5609971 C53.6734943,7.17093473 42.8897757,0 30.4066097,0 C18.4307733,0 8.01904905,6.59981693 2.71194412,16.3103202 C-2.16076179,25.2259202 0.0546370376,36.1752959 5.2266477,44.9253329 C10.0894666,53.1522703 16.4616898,60.2764872 23.7904364,68.470112 L23.9747908,68.6762906 L23.9781372,68.6800921 L23.9839173,68.6864945 C26.04893,70.995275 28.1909091,73.3902884 30.3985987,75.919653 C30.4037704,75.9255552 30.4066097,75.9331581 30.4066097,75.9409611 L30.4066097,75.9828771 C30.4066097,75.9986831 30.4265865,76.0060859 30.4371327,75.9939813 C30.4440282,75.9860783 30.456501,75.9860783 30.463498,75.9939813 C30.4739427,76.0060859 30.4940209,75.9986831 30.4940209,75.9828771 L30.4940209,75.9409611 C30.4940209,75.9331581 30.4968602,75.9255552 30.5020319,75.919653 C32.7128651,73.3864869 34.8578864,70.9882723 36.9257384,68.6763906 L37.7490461,67.7562397 L37.846902,67.646798 C45.1879187,59.4434696 51.7155653,52.1490877 56.4493565,43.7641901 Z" id="Shape" fill="url(#linearGradient-1)" fill-rule="nonzero"></path>
            <ellipse id="Oval" fill="#FFFFFF" fill-rule="nonzero" cx="30.4918033" cy="29" rx="19.3114754" ry="19"></ellipse>
            <path d="M33.9588601,30.2425629 L31.0197697,21.8268497 L27.8961624,30.2425629 L33.9588601,30.2425629 Z M29.6490728,19 L32.6145228,19 L39.6393443,38.0488177 L36.7661527,38.0488177 L34.8023659,32.3432494 L27.144915,32.3432494 L25.0493304,38.0488177 L22.3606557,38.0488177 L29.6490728,19 Z" id="A" fill="url(#linearGradient-2)"></path>
        </g>
    </g>
</svg>