<?xml version="1.0" encoding="UTF-8"?>
<svg width="38px" height="38px" viewBox="0 0 38 38" version="1.1" xmlns="http://www.w3.org/2000/svg" xmlns:xlink="http://www.w3.org/1999/xlink">
    <!-- Generator: Sketch 51.3 (57544) - http://www.bohemiancoding.com/sketch -->
    <title>pin_user</title>
    <desc>Created with Sketch.</desc>
    <defs>
        <linearGradient x1="17.5395553%" y1="78.8065362%" x2="86.9681943%" y2="20.4310091%" id="linearGradient-1">
            <stop stop-color="#E07105" offset="0%"></stop>
            <stop stop-color="#F8BC01" offset="100%"></stop>
        </linearGradient>
        <linearGradient x1="22.1682788%" y1="74.9147103%" x2="88.2184636%" y2="19.379784%" id="linearGradient-2">
            <stop stop-color="#E37806" offset="0%"></stop>
            <stop stop-color="#F7B702" offset="100%"></stop>
        </linearGradient>
    </defs>
    <g id="Page-1" stroke="none" stroke-width="1" fill="none" fill-rule="evenodd">
        <g id="pin_user" fill-rule="nonzero">
            <circle id="Oval" fill="url(#linearGradient-1)" cx="19" cy="19" r="19"></circle>
            <circle id="Oval" stroke="#FFFFFF" fill="url(#linearGradient-2)" cx="19" cy="19" r="14"></circle>
            <path d="M23.3750306,21.6251111 L22.4999928,21.6251111 C21.5335473,21.6251111 20.7499459,20.8415015 20.7499459,19.875017 L20.7499459,19.3128309 C21.1371012,18.8526717 21.4147866,18.308375 21.5873878,17.7332336 C21.6053057,17.636285 21.6986177,17.5883879 21.7608545,17.5217357 C22.0958717,17.1867728 22.1617441,16.6214994 21.9104596,16.2190188 C21.8762394,16.1579354 21.8146085,16.1049599 21.8180997,16.0292766 C21.8180997,15.5161419 21.8206677,15.0021993 21.8174361,14.4894685 C21.8037019,13.8704117 21.6267727,13.2264543 21.1927594,12.7680551 C20.8423634,12.3976886 20.3612325,12.1771596 19.864867,12.082779 C19.2376224,11.9631226 18.5814089,11.9691819 17.9601658,12.1272137 C17.4217897,12.263086 16.9159891,12.5783995 16.6032468,13.0458011 C16.3263117,13.4521481 16.204983,13.9455469 16.184497,14.4318187 C16.1768221,14.9538981 16.182737,15.4772759 16.1811501,16.0006248 C16.1930665,16.1053927 16.104198,16.1762863 16.0640629,16.2630207 C15.8273782,16.692393 15.9315679,17.2773735 16.311885,17.5896574 C16.4083708,17.6562518 16.426433,17.7776395 16.4613746,17.882292 C16.627224,18.3992642 16.9023126,18.8773705 17.250083,19.2939606 L17.250083,19.875017 C17.250083,20.8415015 16.4665105,21.6251111 15.5000938,21.6251111 L14.6250271,21.6251111 C14.6250271,21.6251111 13.0391273,22.0624759 12,24.250079 L12,25.1251261 C12,25.6086858 12.3913679,26 12.8750379,26 L25.1251064,26 C25.608661,26 26,25.6086858 26,25.1251261 L26,24.250079 C24.9609304,22.062649 23.3750306,21.6251111 23.3750306,21.6251111 Z" id="Shape" fill="#FFFFFF"></path>
        </g>
    </g>
</svg>