<?xml version="1.0" encoding="UTF-8"?>
<svg width="60px" height="76px" viewBox="0 0 60 76" version="1.1" xmlns="http://www.w3.org/2000/svg" xmlns:xlink="http://www.w3.org/1999/xlink">
    <!-- Generator: Sketch 51.3 (57544) - http://www.bohemiancoding.com/sketch -->
    <title>user</title>
    <desc>Created with Sketch.</desc>
    <defs>
        <linearGradient x1="81.4515344%" y1="0%" x2="1.19415639%" y2="100.303781%" id="linearGradient-1">
            <stop stop-color="#FCC701" offset="0%"></stop>
            <stop stop-color="#D95A07" offset="100%"></stop>
        </linearGradient>
        <linearGradient x1="11.9949058%" y1="100%" x2="71.8613798%" y2="12.3300268%" id="linearGradient-2">
            <stop stop-color="#E17405" offset="0%"></stop>
            <stop stop-color="#F9BF01" offset="100%"></stop>
        </linearGradient>
    </defs>
    <g id="Page-1" stroke="none" stroke-width="1" fill="none" fill-rule="evenodd">
        <g id="Telecom_Car_logo">
            <circle id="Oval" fill="#FFFFFF" cx="31" cy="29" r="25"></circle>
            <path d="M55.6671976,43.7475 C60.1456976,35.7063 61.9291976,25.8462 57.9339976,17.5543 C52.9297976,7.1682 42.2954976,0 29.9852976,0 C18.1753976,0 7.90793759,6.5973 2.67436759,16.3041 C-2.13082241,25.2163 0.0538799901,36.1615 5.15422759,44.9082 C9.94966759,53.132 16.2335976,60.2535 23.4607976,68.444 L23.6425976,68.6501 L23.6458976,68.6539 L23.6515976,68.6603 C25.6879976,70.9682 27.8002976,73.3623 29.9773976,75.8907 C29.9824976,75.8966 29.9852976,75.9042 29.9852976,75.912 L29.9852976,75.9539 C29.9852976,75.9697 30.0049976,75.9771 30.0153976,75.965 C30.0221976,75.9571 30.0344976,75.9571 30.0413976,75.965 C30.0516976,75.9771 30.0714976,75.9697 30.0714976,75.9539 L30.0714976,75.912 C30.0714976,75.9042 30.0742976,75.8966 30.0793976,75.8907 C32.2595976,73.3585 34.3748976,70.9612 36.4140976,68.6502 L37.2259976,67.7304 L37.3224976,67.621 C44.5617976,59.4208 50.9989976,52.1292 55.6671976,43.7475 Z M29.9852976,48 C41.0309976,48 49.9852976,39.0457 49.9852976,28 C49.9852976,16.9543 41.0309976,8 29.9852976,8 C18.9395976,8 9.98527759,16.9543 9.98527759,28 C9.98527759,39.0457 18.9395976,48 29.9852976,48 Z" id="Shape" fill="url(#linearGradient-1)"></path>
            <path d="M35.6250394,30.3751428 L34.4999907,30.3751428 C33.2574179,30.3751428 32.2499304,29.3676448 32.2499304,28.1250219 L32.2499304,27.4022112 C32.7477015,26.8105779 33.1047256,26.1107678 33.3266414,25.3713003 C33.3496788,25.2466522 33.4696513,25.1850701 33.5496701,25.0993745 C33.9804065,24.6687079 34.0650995,23.9419278 33.7420195,23.4244527 C33.6980221,23.3459169 33.6187823,23.2778056 33.6232711,23.1804985 C33.6232711,22.5207539 33.6265728,21.8599705 33.6224179,21.2007452 C33.6047596,20.4048151 33.3772792,19.5768698 32.8192621,18.9874994 C32.368753,18.5113139 31.7501561,18.2277766 31.1119719,18.1064301 C30.3055145,17.9525862 29.4618115,17.9603767 28.6630703,18.1635605 C27.9708725,18.3382534 27.3205574,18.7436565 26.9184602,19.3446014 C26.5624007,19.8670476 26.4064067,20.5014174 26.3800676,21.1266241 C26.3701998,21.797869 26.3778047,22.4707833 26.3757644,23.1436605 C26.3910855,23.2783621 26.276826,23.369511 26.2252237,23.4810266 C25.9209148,24.0330767 26.054873,24.7851945 26.5438521,25.1867024 C26.6679053,25.2723238 26.6911282,25.4283936 26.736053,25.5629468 C26.949288,26.2276254 27.3029733,26.8423335 27.7501067,27.3779494 L27.7501067,28.1250219 C27.7501067,29.3676448 26.7426563,30.3751428 25.5001206,30.3751428 L24.3750348,30.3751428 C24.3750348,30.3751428 22.3360208,30.937469 21,33.7501016 L21,34.8751621 C21,35.4968817 21.5031873,36 22.1250487,36 L37.8751368,36 C38.4968498,36 39,35.4968817 39,34.8751621 L39,33.7501016 C37.6640534,30.9376916 35.6250394,30.3751428 35.6250394,30.3751428 Z" id="Shape" fill="url(#linearGradient-2)" fill-rule="nonzero"></path>
        </g>
    </g>
</svg>